<?xml version="1.0" standalone="no"?>
<!DOCTYPE svg PUBLIC "-//W3C//DTD SVG 20010904//EN"
 "http://www.w3.org/TR/2001/REC-SVG-20010904/DTD/svg10.dtd">
<svg version="1.0" xmlns="http://www.w3.org/2000/svg"
 width="125.000000pt" height="125.000000pt" viewBox="0 0 125.000000 125.000000"
 preserveAspectRatio="xMidYMid meet">
<metadata>
Created by potrace 1.14, written by Peter Selinger 2001-2017
</metadata>
<g transform="translate(0.000000,125.000000) scale(0.100000,-0.100000)"
fill="#000000" stroke="none">
<path d="M279 1072 c-8 -2 -58 -79 -112 -171 l-98 -169 32 -53 c63 -107 79
-138 71 -142 -4 -2 -37 -4 -75 -3 -37 1 -67 -2 -67 -5 0 -4 37 -69 82 -145 44
-77 88 -151 96 -165 l16 -26 202 0 203 0 100 171 100 171 196 0 c108 0 198 2
199 5 2 3 -40 79 -94 170 l-97 165 -124 3 -124 3 -54 94 c-31 57 -60 95 -70
96 -39 3 -369 4 -382 1z m246 -369 c-8 -16 -20 -35 -25 -43 -5 -8 -24 -40 -42
-70 -29 -49 -37 -55 -65 -56 -18 0 -33 2 -33 4 0 2 25 46 56 98 53 90 57 94
90 94 l35 0 -16 -27z"/>
</g>
</svg>
