<?xml version="1.0" standalone="no"?>
<!DOCTYPE svg PUBLIC "-//W3C//DTD SVG 20010904//EN"
 "http://www.w3.org/TR/2001/REC-SVG-20010904/DTD/svg10.dtd">
<svg version="1.0" xmlns="http://www.w3.org/2000/svg"
 width="120.000000pt" height="120.000000pt" viewBox="0 0 120.000000 120.000000"
 preserveAspectRatio="xMidYMid meet">
<metadata>
Created by potrace 1.14, written by Peter Selinger 2001-2017
</metadata>
<g transform="translate(0.000000,120.000000) scale(0.100000,-0.100000)"
fill="#000000" stroke="none">
<path d="M526 1178 c-7 -13 -17 -34 -21 -48 -18 -61 -61 -79 -117 -50 -21 11
-47 20 -57 20 -23 0 -150 -127 -158 -158 -3 -15 2 -38 14 -60 11 -21 19 -43
17 -49 -1 -7 -2 -20 -3 -28 -2 -21 -40 -53 -72 -60 -47 -11 -56 -34 -55 -144
1 -61 6 -104 14 -113 6 -8 30 -20 53 -27 32 -10 44 -20 55 -47 13 -32 13 -39
-6 -81 -11 -25 -20 -52 -20 -60 0 -22 140 -163 162 -163 10 0 29 7 42 15 45
29 74 28 106 -4 17 -16 30 -38 30 -48 0 -10 7 -29 16 -41 14 -20 23 -22 119
-22 96 0 105 2 119 22 9 12 16 30 16 40 0 25 41 67 71 72 16 2 40 -4 58 -15
17 -10 40 -19 50 -19 19 0 139 116 155 150 10 21 -23 99 -57 137 -19 21 -29
23 -139 23 -105 0 -126 -3 -181 -26 -48 -21 -72 -25 -109 -21 -122 15 -206
111 -208 238 0 58 39 139 88 179 64 52 166 63 237 23 44 -24 266 -31 299 -9
35 23 82 119 70 145 -16 35 -135 151 -155 151 -10 0 -36 -9 -58 -21 -35 -18
-43 -19 -68 -7 -15 7 -33 25 -40 41 -7 15 -19 39 -26 55 -13 27 -14 27 -119
30 -102 3 -108 2 -122 -20z"/>
</g>
</svg>
