<svg width="41" height="40" viewBox="0 0 41 40" fill="none" xmlns="http://www.w3.org/2000/svg">
<g clip-path="url(#clip0_5656_390)">
<path d="M1.33325 39.1665H39.6666" stroke="black" stroke-miterlimit="10" stroke-linecap="round" stroke-linejoin="round"/>
<path d="M8 30.8333H3V39.1666H8V30.8333Z" stroke="black" stroke-miterlimit="10" stroke-linecap="round" stroke-linejoin="round"/>
<path d="M18 22.5H13V39.1667H18V22.5Z" stroke="black" stroke-miterlimit="10" stroke-linecap="round" stroke-linejoin="round"/>
<path d="M28 25.8333H23V39.1666H28V25.8333Z" stroke="black" stroke-miterlimit="10" stroke-linecap="round" stroke-linejoin="round"/>
<path d="M38 14.1665H33V39.1665H38V14.1665Z" stroke="black" stroke-miterlimit="10" stroke-linecap="round" stroke-linejoin="round"/>
<path d="M5.49992 20.8333C6.42039 20.8333 7.16659 20.0871 7.16659 19.1667C7.16659 18.2462 6.42039 17.5 5.49992 17.5C4.57944 17.5 3.83325 18.2462 3.83325 19.1667C3.83325 20.0871 4.57944 20.8333 5.49992 20.8333Z" stroke="black" stroke-miterlimit="10" stroke-linecap="round" stroke-linejoin="round"/>
<path d="M15.4999 12.4998C16.4204 12.4998 17.1666 11.7536 17.1666 10.8332C17.1666 9.9127 16.4204 9.1665 15.4999 9.1665C14.5794 9.1665 13.8333 9.9127 13.8333 10.8332C13.8333 11.7536 14.5794 12.4998 15.4999 12.4998Z" stroke="black" stroke-miterlimit="10" stroke-linecap="round" stroke-linejoin="round"/>
<path d="M25.4999 15.8333C26.4204 15.8333 27.1666 15.0871 27.1666 14.1667C27.1666 13.2462 26.4204 12.5 25.4999 12.5C24.5794 12.5 23.8333 13.2462 23.8333 14.1667C23.8333 15.0871 24.5794 15.8333 25.4999 15.8333Z" stroke="black" stroke-miterlimit="10" stroke-linecap="round" stroke-linejoin="round"/>
<path d="M35.4999 4.16658C36.4204 4.16658 37.1666 3.42039 37.1666 2.49992C37.1666 1.57944 36.4204 0.833252 35.4999 0.833252C34.5794 0.833252 33.8333 1.57944 33.8333 2.49992C33.8333 3.42039 34.5794 4.16658 35.4999 4.16658Z" stroke="black" stroke-miterlimit="10" stroke-linecap="round" stroke-linejoin="round"/>
<path d="M6.83325 18.1666L14.1666 11.8333" stroke="black" stroke-miterlimit="10" stroke-linecap="round" stroke-linejoin="round"/>
<path d="M17 11.333L24 13.6663" stroke="black" stroke-miterlimit="10" stroke-linejoin="round"/>
<path d="M34.3332 3.83301L26.6665 12.833" stroke="black" stroke-miterlimit="10" stroke-linecap="round" stroke-linejoin="round"/>
</g>
<defs>
<clipPath id="clip0_5656_390">
<rect width="40" height="40" fill="white" transform="translate(0.5)"/>
</clipPath>
</defs>
</svg>
