<svg width="20" height="20" viewBox="0 0 20 20" fill="none" xmlns="http://www.w3.org/2000/svg">
<path d="M5 12.6667C5 12.0467 5 11.7367 5.06815 11.4824C5.25308 10.7922 5.79218 10.2531 6.48236 10.0681C6.73669 10 7.04669 10 7.66667 10H12.3333C12.9533 10 13.2633 10 13.5176 10.0681C14.2078 10.2531 14.7469 10.7922 14.9319 11.4824C15 11.7367 15 12.0467 15 12.6667V13C15 13.9293 15 14.394 14.9231 14.7804C14.6075 16.3671 13.3671 17.6075 11.7804 17.9231C11.394 18 10.9293 18 10 18C9.07069 18 8.60603 18 8.21964 17.9231C6.63288 17.6075 5.39249 16.3671 5.07686 14.7804C5 14.394 5 13.9293 5 13V12.6667Z" stroke="#7C7C7C" stroke-opacity="0.5" stroke-width="1.5" stroke-linecap="round" stroke-linejoin="round"/>
<path d="M11 15H10H9M13 6V5C13 3.34315 11.6569 2 10 2C8.34315 2 7 3.34315 7 5V10" stroke="#7C7C7C" stroke-opacity="0.5" stroke-width="1.5" stroke-linecap="round" stroke-linejoin="round"/>
</svg>
