<svg width="20" height="20" viewBox="0 0 20 20" fill="none" xmlns="http://www.w3.org/2000/svg">
<path d="M18 7L11.5652 10.2174C10.9086 10.5457 10.5802 10.7099 10.2313 10.7505C10.0776 10.7684 9.92238 10.7684 9.76869 10.7505C9.41977 10.7099 9.09143 10.5457 8.43475 10.2174L2 7" stroke="#7C7C7C" stroke-opacity="0.5" stroke-width="1.5" stroke-linecap="round" stroke-linejoin="round"/>
<path d="M14.5 4C15.9045 4 16.6067 4 17.1111 4.33706C17.3295 4.48298 17.517 4.67048 17.6629 4.88886C18 5.39331 18 6.09554 18 7.5V12.5C18 13.9045 18 14.6067 17.6629 15.1111C17.517 15.3295 17.3295 15.517 17.1111 15.6629C16.6067 16 15.9045 16 14.5 16H5.5C4.09554 16 3.39331 16 2.88886 15.6629C2.67048 15.517 2.48298 15.3295 2.33706 15.1111C2 14.6067 2 13.9045 2 12.5V7.5C2 6.09554 2 5.39331 2.33706 4.88886C2.48298 4.67048 2.67048 4.48298 2.88886 4.33706C3.39331 4 4.09554 4 5.5 4H14.5Z" stroke="#7C7C7C" stroke-opacity="0.5" stroke-width="1.5" stroke-linecap="round" stroke-linejoin="round"/>
</svg>
