<svg width="16" height="17" viewBox="0 0 16 17" fill="none" xmlns="http://www.w3.org/2000/svg">
<path d="M14.4 8.98691L10.0696 13.3347C9.93043 13.4739 9.75651 13.5434 9.5826 13.5434C9.40869 13.5434 9.23477 13.4739 9.09564 13.3347C8.81738 13.0565 8.81738 12.6217 9.09564 12.3434L12.2435 9.19561H2.08695C1.70434 9.19561 1.3913 8.88257 1.3913 8.49996C1.3913 8.11735 1.70434 7.8043 2.08695 7.8043H12.2435L9.07825 4.63909C8.79999 4.36083 8.79999 3.92604 9.07825 3.64778C9.35651 3.36952 9.7913 3.36952 10.0696 3.64778L14.4 7.99561C14.6783 8.27387 14.6783 8.72604 14.4 8.98691Z" fill="currentColor"/>
</svg>
