<svg width="48" height="48" viewBox="0 0 48 48" fill="none" xmlns="http://www.w3.org/2000/svg">
<g clip-path="url(#clip0_5656_378)">
<path d="M19 37C28.9411 37 37 28.9411 37 19C37 9.05887 28.9411 1 19 1C9.05887 1 1 9.05887 1 19C1 28.9411 9.05887 37 19 37Z" stroke="black" stroke-miterlimit="10" stroke-linecap="round" stroke-linejoin="round"/>
<path d="M31.8 31.7998L47.0001 46.9998" stroke="black" stroke-miterlimit="10" stroke-linecap="round" stroke-linejoin="round"/>
<path d="M16 21.2002V24.6002L8 28.0002" stroke="black" stroke-miterlimit="10" stroke-linecap="round" stroke-linejoin="round"/>
<path d="M22 21.2002V24.6002L30 28.0002" stroke="black" stroke-miterlimit="10" stroke-linecap="round" stroke-linejoin="round"/>
<path d="M25.4 14.4001C25.4 18.6001 22.6 22.0001 19 22.0001C15.4 22.0001 12.6 18.6001 12.6 14.4001C12.6 10.2001 15.4 6.80014 19 6.80014C22.6 6.60014 25.4 10.0001 25.4 14.4001Z" stroke="black" stroke-miterlimit="10" stroke-linecap="round" stroke-linejoin="round"/>
<path d="M25.4001 13.4C25.2001 13.4 25.0001 13.4 24.6001 13.4C22.6001 13.8 21.2001 13 20.0001 11C19.4001 12.4 17.2 13.4 15.4 13.4C14.6 13.4 13.4 13.2 12.8 12.8" stroke="black" stroke-miterlimit="10" stroke-linecap="round" stroke-linejoin="round"/>
</g>
<defs>
<clipPath id="clip0_5656_378">
<rect width="48" height="48" fill="white"/>
</clipPath>
</defs>
</svg>
