<svg width="20" height="22" viewBox="0 0 20 22" fill="none" xmlns="http://www.w3.org/2000/svg">
<path d="M18.7158 14.7124L14.1152 12.4859L14.1025 12.4796C13.8637 12.3693 13.6032 12.325 13.3445 12.3508C13.0858 12.3766 12.8372 12.4716 12.6211 12.6272C12.5957 12.6454 12.5712 12.6651 12.5479 12.6863L10.1709 14.8748C8.66505 14.0848 7.11036 12.4184 6.37892 10.8132L8.40821 8.20705C8.42774 8.18069 8.4463 8.15432 8.46388 8.12584C8.60492 7.89307 8.69049 7.62626 8.71298 7.34914C8.73547 7.07202 8.69418 6.7932 8.59278 6.53748V6.52483L6.5254 1.54776C6.39136 1.2137 6.16087 0.93542 5.86836 0.75446C5.57584 0.5735 5.23697 0.499566 4.90235 0.543693C3.57908 0.731751 2.36444 1.4336 1.4853 2.51817C0.606149 3.60273 0.122616 4.99584 0.125009 6.43729C0.125009 14.8115 6.4336 21.6248 14.1875 21.6248C15.5222 21.6274 16.8121 21.1052 17.8163 20.1557C18.8205 19.2062 19.4704 17.8944 19.6445 16.4653C19.6855 16.104 19.6172 15.7381 19.4498 15.4222C19.2824 15.1063 19.025 14.8573 18.7158 14.7124ZM14.1875 19.9373C10.8734 19.9334 7.69609 18.5098 5.35267 15.9789C3.00925 13.448 1.69113 10.0165 1.68751 6.43729C1.68383 5.40737 2.0274 4.41123 2.65405 3.63488C3.28069 2.85854 4.14757 2.35508 5.09278 2.21854C5.0924 2.22274 5.0924 2.22698 5.09278 2.23119L7.14356 7.18822L5.12501 9.79752C5.10452 9.82298 5.08591 9.85013 5.06934 9.87873C4.92239 10.1223 4.83618 10.4027 4.81907 10.6928C4.80196 10.9829 4.85453 11.2729 4.97169 11.5346C5.85645 13.4889 7.6797 15.4433 9.5088 16.3978C9.7529 16.5231 10.0229 16.5779 10.2925 16.5568C10.5621 16.5358 10.822 16.4395 11.0469 16.2775C11.072 16.2593 11.0961 16.2396 11.1192 16.2185L13.4932 14.031L18.083 16.2512C18.083 16.2512 18.0908 16.2512 18.0938 16.2512C17.9689 17.2734 17.5034 18.2115 16.7844 18.89C16.0655 19.5684 15.1423 19.9408 14.1875 19.9373Z" fill="#C7C7C7"/>
</svg>
